<?xml version="1.0" encoding="UTF-8"?>
<svg id="Layer_2" data-name="Layer 2" xmlns="http://www.w3.org/2000/svg" viewBox="0 0 1048.53 777.87">
  <g id="Layer_3" data-name="Layer 3">
    <g>
      <path d="M302.77,498.01c6.13,6.23,11.31,11.94,15.35,16.79,14.97,17.96,28.66,42.26,39.79,62.18l16.6-76.59-68.97-15.16-2.77,12.77Z"/>
      <polygon points="309.99 464.7 378.96 479.86 395.67 402.72 326.71 387.56 309.99 464.7"/>
      <polygon points="331.16 367.03 400.12 382.19 418.7 296.47 349.74 281.31 331.16 367.03"/>
      <polygon points="226.11 343.94 310.64 362.52 329.22 276.8 244.69 258.23 226.11 343.94"/>
      <polygon points="399.47 484.37 485.06 503.18 501.78 426.04 416.19 407.23 399.47 484.37"/>
      <path d="M500.95,646.22c15.22,8.91,31.61,19.26,48.53,31.09l4.22-19.49-52.76-11.59Z"/>
      <polygon points="690.55 569.85 598.64 549.65 578.67 641.79 670.58 661.99 690.55 569.85"/>
      <polygon points="420.64 386.7 506.23 405.5 524.81 319.79 439.22 300.98 420.64 386.7"/>
      <polygon points="711.72 472.17 619.81 451.97 603.09 529.12 695 549.32 711.72 472.17"/>
      <path d="M208.35,425.87c13.94,7.57,27.32,16.22,39.77,25.24l41.35,9.09,16.72-77.14-84.53-18.58-13.31,61.39Z"/>
      <path d="M284.57,480.63c.13.12.27.24.4.36l.06-.26-.46-.1Z"/>
      <path d="M480.61,523.71l-85.59-18.81-19.97,92.14,31.81,6.99c2.46-.24,5.17-.03,8.21.86,1.91.56,4.5,1.45,7.65,2.63l37.92,8.33,19.97-92.14Z"/>
      <path d="M548.69,209.61l4.97-22.91c-11.94-24.8-30.58-52.4-49.24-75.46l-22.98-5.05-18.34,84.62,85.59,18.81Z"/>
      <path d="M122.43,209.85l14.98-69.12-71.28-15.66c-.55,1.28-1.1,2.55-1.66,3.87-6.87,16.21-14.44,38.71-21.88,63.37l79.84,17.55Z"/>
      <polygon points="558.15 637.28 578.12 545.14 501.13 528.22 481.16 620.36 558.15 637.28"/>
      <path d="M81.25,399.89l13.71-63.26-85.45-18.78c-3.84,16.77-6.57,30.04-7.71,37.31-2.95,18.95-2.09,32.81,1.25,42.09l37.57,8.26c6.61-2.4,16.43-4.57,40.63-5.61Z"/>
      <path d="M1032.05,362.02c-5.55,5.55-24.31,20.22-47.28,37.35l47.56,10.45c4.79-6.64,8.43-11.99,10.49-15.48,12.73-21.55,1.96-45.05-10.77-32.32Z"/>
      <path d="M141.86,120.2l18.34-84.62-1-.22c-3.26.85-6.45,1.69-9.52,2.49-35.04,9.18-54.45,26.9-74.56,67.67l66.75,14.67Z"/>
      <path d="M508.53,494.06c5.89,1.67,12.48,5.18,17.58,9.43,5.18,4.31,9,7.71,11.51,11.24l44.95,9.88,16.72-77.14-76.99-16.92-13.77,63.52Z"/>
      <path d="M526.75,410.01l76.99,16.92,12.92-59.63c-4.07-10.79-7.46-21.19-10.8-29.71l-60.54-13.3-18.58,85.72Z"/>
      <path d="M568.06,690.75c.58.44,1.16.86,1.75,1.3,33.5,25.24,59.9,48.76,79.81,66.63l16.51-76.16-91.91-20.2-6.16,28.43Z"/>
      <path d="M716.17,451.64l3.7-17.07c-10.63,1.27-23.74,1.1-41.35-1.06-22.03-2.7-36.62-16.96-47.2-34.63l-7.06,32.56,91.91,20.2Z"/>
      <path d="M962.45,415.97l-18.58,85.72,12.24,2.69c21.33-24.02,44.95-53.18,62.45-76.08l-56.11-12.33Z"/>
      <path d="M702.02,765.5c-.98-8.81,5.88-9.79,13.71-2.94,7.83,6.86,23.5,2.94,44.07-11.75.04-.03.09-.07.13-.1l9.84-45.42-83.13-18.27-18.05,83.28,34.42,7.56c.02-4.43-.63-9.03-1-12.37Z"/>
      <path d="M835.88,499.46l-16.72,77.14,48.07,10.56c14.47-12.43,30.43-26.15,45.08-39.01l6.6-30.45-83.03-18.25Z"/>
      <path d="M102.86,399.33c4.77-.06,9.91-.09,15.47-.09,23.42,0,47.5,6.68,70.61,17.02l12.2-56.28-85.67-18.83-12.61,58.19Z"/>
      <polygon points="119.92 320.61 205.59 339.43 224.17 253.72 138.5 234.89 119.92 320.61"/>
      <path d="M893.97,463.87c-9.81,6.47-20.49,13.29-31.51,19.92l60.9,13.38,13.66-63.02c-15.83,11.26-30.98,21.76-43.05,29.71Z"/>
      <polygon points="142.95 214.36 228.62 233.19 243.6 164.07 157.93 145.24 142.95 214.36"/>
      <path d="M99.41,316.1l18.58-85.72-81.33-17.87c-8.3,28.94-16.14,59.24-22.34,84.89l85.09,18.7Z"/>
      <path d="M939.43,522.21l-.1.45c.12-.13.25-.26.37-.39l-.27-.06Z"/>
      <path d="M396.4,65.99l68.97,15.16,2.01-9.27c-22.84-20-42.31-33.85-62.86-43.33l-8.11,37.44Z"/>
      <path d="M278.32,3.84c-19.55,5.3-47.12,12.6-74.53,19.82l67.04,14.73,7.49-34.55Z"/>
      <polygon points="794.19 592.62 711.06 574.36 691.09 666.5 774.22 684.77 794.19 592.62"/>
      <path d="M375.89,61.48l8.8-40.62c-2.89-.92-5.8-1.8-8.79-2.59C348.86,11.12,325.7-.56,300.65.02l-9.29,42.88,84.53,18.58Z"/>
      <path d="M768.02,463.04c6.36-9.37,13.17-19.35,20.18-28.55,15.67-20.57-3.92-29.38-25.46-16.65-6.96,4.11-13.2,7.81-20.08,10.74l-5.98,27.57,31.34,6.89Z"/>
      <path d="M549.78,303.77l46.15,10.14c-10-23.37-21.13-49.91-27.43-78.44l-3.74-.82-14.98,69.12Z"/>
      <path d="M758.82,523.61c-32.32-3.92-22.52-18.61-11.75-31.34,2.49-2.95,5.2-6.54,8.08-10.55l-22.91-5.04-16.72,77.14,83.13,18.27,13.31-61.39c-20.43,9.07-39.29,14.58-53.13,12.91Z"/>
      <polygon points="443.67 280.45 529.26 299.26 544.24 230.14 458.65 211.33 443.67 280.45"/>
      <path d="M824.43,624.48c4.71-4.39,12.85-11.51,22.88-20.18l-32.61-7.17-10.83,49.97c5.71-8.24,13-15.57,20.56-22.62Z"/>
      <polygon points="354.19 260.78 423.15 275.94 438.13 206.82 369.16 191.66 354.19 260.78"/>
      <polygon points="249.14 237.7 333.67 256.27 348.65 187.16 264.11 168.58 249.14 237.7"/>
      <polygon points="268.56 148.05 353.1 166.62 371.44 82.01 286.9 63.43 268.56 148.05"/>
      <polygon points="373.61 171.13 442.58 186.29 460.92 101.67 391.95 86.52 373.61 171.13"/>
      <polygon points="162.38 124.71 248.05 143.54 266.39 58.92 180.72 40.09 162.38 124.71"/>
    </g>
  </g>
</svg>